<svg xmlns="http://www.w3.org/2000/svg" version="1.1" xmlns:xlink="http://www.w3.org/1999/xlink" xmlns:svgjs="http://svgjs.dev/svgjs" width="1000" height="999" viewBox="0 0 1000 999"><g transform="matrix(1,0,0,1,-0.215743440233382,-0.21552769679306039)"><svg viewBox="0 0 343 343" data-background-color="#ffffff" preserveAspectRatio="xMidYMid meet" height="999" width="1000" xmlns="http://www.w3.org/2000/svg" xmlns:xlink="http://www.w3.org/1999/xlink"><g id="tight-bounds" transform="matrix(1,0,0,1,0.0740000000000407,0.07400000000001228)"><svg viewBox="0 0 342.85155851775386 342.85155851775386" height="342.85155851775386" width="342.85155851775386"><g><svg></svg></g><g><svg viewBox="0 0 342.85155851775386 342.85155851775386" height="342.85155851775386" width="342.85155851775386"><g><path d="M0 171.426c0-94.676 76.75-171.426 171.426-171.426 94.676 0 171.426 76.75 171.426 171.426 0 94.676-76.75 171.426-171.426 171.426-94.676 0-171.426-76.75-171.426-171.426zM171.426 338.775c92.424 0 167.349-74.925 167.349-167.349 0-92.424-74.925-167.349-167.349-167.349-92.424 0-167.349 74.925-167.349 167.349 0 92.424 74.925 167.349 167.349 167.349z" data-fill-palette-color="tertiary" fill="#000000" stroke="transparent"></path><ellipse rx="164.56874808852186" ry="164.56874808852186" cx="171.42577925887693" cy="171.42577925887693" fill="#000000" stroke="transparent" stroke-width="0" fill-opacity="1" data-fill-palette-color="tertiary"></ellipse></g><g transform="matrix(1,0,0,1,64.84655864529837,134.20801802787057)"><svg viewBox="0 0 213.1584412271571 74.43552246201273" height="74.43552246201273" width="213.1584412271571"><g><svg viewBox="0 0 213.1584412271571 74.43552246201273" height="74.43552246201273" width="213.1584412271571"><g><svg viewBox="0 0 213.1584412271571 74.43552246201273" height="74.43552246201273" width="213.1584412271571"><g><svg viewBox="0 0 213.1584412271571 74.43552246201273" height="74.43552246201273" width="213.1584412271571"><g id="textblocktransform"><svg viewBox="0 0 213.1584412271571 74.43552246201273" height="74.43552246201273" width="213.1584412271571" id="textblock"><g><svg viewBox="0 0 213.1584412271571 45.2092926945854" height="45.2092926945854" width="213.1584412271571"><g transform="matrix(1,0,0,1,0,0)"><svg width="213.1584412271571" viewBox="4.300000190734863 -33 157.94000244140625 33.5" height="45.2092926945854" data-palette-color="#ffffff"><path d="M26.45-33L32.65-33 32.65 0 24.75 0 13.2-19.4 10.35-24.8 10.3-24.8 10.5-19.1 10.5 0 4.3 0 4.3-33 12.15-33 23.7-13.65 26.55-8.2 26.65-8.2 26.45-13.9 26.45-33ZM54.8-9.2L54.8-15.95Q54.8-18.1 53.57-19.3 52.35-20.5 50.35-20.5L50.35-20.5Q48.5-20.5 47.1-19.55 45.7-18.6 45.05-16.4L45.05-16.4 39.2-18.2Q40.05-21.5 42.92-23.5 45.8-25.5 50.65-25.5L50.65-25.5Q53.95-25.5 56.4-24.48 58.85-23.45 60.22-21.4 61.6-19.35 61.6-16.25L61.6-16.25 61.6-6.1Q61.6-4.2 63.4-4.2L63.4-4.2Q64.25-4.2 65-4.45L65-4.45 64.6-0.2Q63.3 0.45 61.35 0.45L61.35 0.45Q59.6 0.45 58.2-0.15 56.8-0.75 56-1.98 55.2-3.2 55.2-5.05L55.2-5.05 55.2-5.25 56.4-5.45Q56.1-3.55 54.75-2.23 53.4-0.9 51.47-0.2 49.55 0.5 47.5 0.5L47.5 0.5Q44.95 0.5 43.1-0.28 41.25-1.05 40.25-2.55 39.25-4.05 39.25-6.25L39.25-6.25Q39.25-9.05 41.05-10.83 42.85-12.6 46.2-13.25L46.2-13.25 55.6-15.15 55.55-10.9 49.55-9.7Q47.85-9.35 46.97-8.78 46.1-8.2 46.1-6.9L46.1-6.9Q46.1-5.65 47.02-5 47.95-4.35 49.25-4.35L49.25-4.35Q50.3-4.35 51.3-4.6 52.3-4.85 53.1-5.4 53.9-5.95 54.35-6.9 54.8-7.85 54.8-9.2L54.8-9.2ZM96.55-5.85L101.5-25 108.8-25 100.8 0 92.9 0 87.45-17 82.2 0 74.3 0 66.3-25 73.6-25 78.6-5.85 84.15-25 90.95-25 96.55-5.85ZM127.29-9.2L127.29-15.95Q127.29-18.1 126.07-19.3 124.84-20.5 122.84-20.5L122.84-20.5Q120.99-20.5 119.59-19.55 118.19-18.6 117.54-16.4L117.54-16.4 111.69-18.2Q112.54-21.5 115.42-23.5 118.29-25.5 123.14-25.5L123.14-25.5Q126.44-25.5 128.89-24.48 131.34-23.45 132.72-21.4 134.09-19.35 134.09-16.25L134.09-16.25 134.09-6.1Q134.09-4.2 135.89-4.2L135.89-4.2Q136.74-4.2 137.49-4.45L137.49-4.45 137.09-0.2Q135.79 0.45 133.84 0.45L133.84 0.45Q132.09 0.45 130.69-0.15 129.29-0.75 128.49-1.98 127.69-3.2 127.69-5.05L127.69-5.05 127.69-5.25 128.89-5.45Q128.59-3.55 127.24-2.23 125.89-0.9 123.97-0.2 122.04 0.5 119.99 0.5L119.99 0.5Q117.44 0.5 115.59-0.28 113.74-1.05 112.74-2.55 111.74-4.05 111.74-6.25L111.74-6.25Q111.74-9.05 113.54-10.83 115.34-12.6 118.69-13.25L118.69-13.25 128.09-15.15 128.04-10.9 122.04-9.7Q120.34-9.35 119.47-8.78 118.59-8.2 118.59-6.9L118.59-6.9Q118.59-5.65 119.52-5 120.44-4.35 121.74-4.35L121.74-4.35Q122.79-4.35 123.79-4.6 124.79-4.85 125.59-5.4 126.39-5.95 126.84-6.9 127.29-7.85 127.29-9.2L127.29-9.2ZM162.24 0L140.29 0 140.29-4.4 151.39-17.2 154.24-20.05 150.09-19.95 140.39-19.95 140.39-25 161.84-25 161.84-20.6 150.79-7.85 147.94-4.95 152.49-5.05 162.24-5.05 162.24 0Z" opacity="1" transform="matrix(1,0,0,1,0,0)" fill="#ffffff" class="wordmark-text-0" data-fill-palette-color="quaternary" id="text-0"></path></svg></g></svg></g><g transform="matrix(1,0,0,1,0,55.88212167675235)"><svg viewBox="0 0 213.1584412271571 18.553400785260376" height="18.553400785260376" width="213.1584412271571"><g transform="matrix(1,0,0,1,0,0)"><svg width="213.1584412271571" viewBox="4.300000190734863 -33.25 492.25 42.849998474121094" height="18.553400785260376" data-palette-color="#ffffff"><path d="M7.05 0L4.3 0 4.3-32.75 21.4-32.75 21.4-30.2 7.05-30.2 7.05-15.9 19.35-15.9 19.35-13.4 7.05-13.4 7.05 0ZM46.25 0L43.7 0 43.6-2.05Q38.8 0.45 35.6 0.45 32.4 0.45 30.55-1.75 28.7-3.95 28.7-7.75L28.7-7.75 28.7-23.75 31.35-23.75 31.35-7.75Q31.35-5.3 32.52-3.73 33.7-2.15 36.1-2.15 38.5-2.15 43.6-4.65L43.6-4.65 43.6-23.75 46.25-23.75 46.25 0ZM61.4-30.75L55.45-30.7 55.4-33.15 64.05-33.2 64.05-2.5 70.15-2.5 70.15 0 55.25 0 55.25-2.5 61.4-2.5 61.4-30.75ZM86.39-30.75L80.44-30.7 80.39-33.15 89.04-33.2 89.04-2.5 95.14-2.5 95.14 0 80.24 0 80.24-2.5 86.39-2.5 86.39-30.75ZM136.31-15.73Q131.84-16.8 129.76-18.88 127.69-20.95 127.69-24.9 127.69-28.85 130.41-31.05 133.14-33.25 137.44-33.25 141.74-33.25 146.19-31.7L146.19-31.7 145.49-29.15Q141.34-30.65 137.86-30.65 134.39-30.65 132.54-29.18 130.69-27.7 130.69-24.9 130.69-22.1 132.19-20.65 133.69-19.2 138.16-18.03 142.64-16.85 144.64-14.93 146.64-13 146.64-8.72 146.64-4.45 143.76-1.98 140.89 0.5 136.34 0.5L136.34 0.5Q132.94 0.5 127.74-0.95L127.74-0.95 128.39-3.5Q133.49-2.1 136.59-2.1 139.69-2.1 141.69-3.83 143.69-5.55 143.69-8.65 143.69-11.75 142.24-13.2 140.79-14.65 136.31-15.73ZM157.99-9.1L157.99-20.9 153.79-20.9 153.79-23.4 157.99-23.4 157.99-29.15 160.64-29.65 160.64-23.4 170.14-23.4 170.14-20.9 160.64-20.9 160.64-9.2Q160.64-5.3 161.41-3.7 162.19-2.1 164.59-2.1 166.99-2.1 169.89-3.05L169.89-3.05 170.49-0.55Q167.59 0.5 165.09 0.5 162.59 0.5 161.16-0.15 159.74-0.8 159.06-2.23 158.39-3.65 158.19-5.15 157.99-6.65 157.99-9.1L157.99-9.1ZM185.88-2.15L185.88-2.15Q187.73-2.15 189.91-3.33 192.08-4.5 193.08-5.5L193.08-5.5 193.08-11.45Q189.78-11.7 186.78-11.7 183.78-11.7 182.28-10.43 180.78-9.15 180.78-7L180.78-7Q180.78-2.15 185.88-2.15ZM185.83 0.45L185.83 0.45Q182.18 0.45 180.08-1.43 177.98-3.3 177.98-6.75 177.98-10.2 180.28-12.1L180.28-12.1Q182.58-14.05 186.38-14.05 190.18-14.05 193.08-13.75L193.08-13.75Q193.08-18.2 191.98-19.83 190.88-21.45 187.53-21.45 184.18-21.45 179.63-19.85L179.63-19.85 178.88-22.35Q183.53-24.05 187.28-24.05L187.28-24.05Q192.23-24.05 193.98-21.85 195.73-19.65 195.73-14.15L195.73-14.15 195.73-3.65 196.13 0.15 193.58 0.4 193.08-2.6Q191.93-1.6 189.83-0.58 187.73 0.45 185.83 0.45ZM220.63-16L217.93-16 217.93-20.95Q215.48-21.5 214.03-21.5L214.03-21.5Q210.43-21.5 208.66-18.95 206.88-16.4 206.88-11.9 206.88-7.4 208.68-4.78 210.48-2.15 214.03-2.15L214.03-2.15Q216.28-2.15 220.28-3.55L220.28-3.55 221.03-1.05Q217.08 0.45 214.08 0.45L214.08 0.45Q209.18 0.45 206.61-2.83 204.03-6.1 204.03-11.95 204.03-17.8 206.58-20.93 209.13-24.05 214.08-24.05L214.08-24.05Q217.38-24.05 220.63-23L220.63-23 220.63-16ZM242.93-23.75L242.93-23.75 245.93-23.75Q242.43-18.1 237.88-12.65L237.88-12.65Q240.98-8.25 246.23 0L246.23 0 243.23 0Q239.23-6.5 235.98-11.05L235.98-11.05 232.48-10.6 232.48 0 229.83 0 229.83-33.2 232.48-33.2 232.48-13 235.73-13.5Q239.28-18.1 242.93-23.75ZM284.57 0L277.97 0 277.97-32.75 284.67-32.75Q288.37-32.75 290.75-32.02 293.12-31.3 294.77-29.45 296.42-27.6 297.15-24.43 297.87-21.25 297.87-16.38 297.87-11.5 297.07-8.28 296.27-5.05 294.52-3.25 292.77-1.45 290.42-0.73 288.07 0 284.57 0L284.57 0ZM290.55-3.6Q292.67-4.7 293.8-7.73 294.92-10.75 294.92-16.38 294.92-22 293.82-25.03 292.72-28.05 290.62-29.15 288.52-30.25 284.67-30.25L284.67-30.25 280.72-30.25 280.72-2.5 284.57-2.5Q288.42-2.5 290.55-3.6ZM303.32-11.85Q303.32-17.6 305.7-20.83 308.07-24.05 312.62-24.05 317.17-24.05 319.4-21.05 321.62-18.05 321.62-13.05L321.62-13.05 321.47-10.55 306.17-10.55Q306.42-6.8 308.17-4.48 309.92-2.15 313-2.15 316.07-2.15 320.22-3.6L320.22-3.6 320.97-1.1Q316.92 0.45 313.37 0.45L313.37 0.45Q308.47 0.45 305.9-2.83 303.32-6.1 303.32-11.85ZM312.82-21.5L312.82-21.5Q306.52-21.5 306.17-13.05L306.17-13.05 318.77-13.05Q318.77-21.5 312.82-21.5ZM335.12 0L327.62-23.75 330.62-23.75 337.17-2.4 338.07-2.4 344.37-23.75 347.37-23.75 340.12 0 335.12 0ZM353.32-11.85Q353.32-17.6 355.69-20.83 358.07-24.05 362.62-24.05 367.17-24.05 369.39-21.05 371.62-18.05 371.62-13.05L371.62-13.05 371.47-10.55 356.17-10.55Q356.42-6.8 358.17-4.48 359.92-2.15 362.99-2.15 366.07-2.15 370.22-3.6L370.22-3.6 370.97-1.1Q366.92 0.45 363.37 0.45L363.37 0.45Q358.47 0.45 355.89-2.83 353.32-6.1 353.32-11.85ZM362.82-21.5L362.82-21.5Q356.52-21.5 356.17-13.05L356.17-13.05 368.77-13.05Q368.77-21.5 362.82-21.5ZM386.36-30.75L380.41-30.7 380.36-33.15 389.01-33.2 389.01-2.5 395.11-2.5 395.11 0 380.21 0 380.21-2.5 386.36-2.5 386.36-30.75ZM402.91-11.8Q402.91-24.05 412.46-24.05 422.01-24.05 422.01-11.8 422.01 0.45 412.46 0.45 402.91 0.45 402.91-11.8ZM412.46-21.45Q405.76-21.45 405.76-11.8 405.76-2.15 412.46-2.15 419.16-2.15 419.16-11.8 419.16-21.45 412.46-21.45ZM431.46 9.6L428.81 9.6 428.81-19.45 428.36-23.8 430.86-24.1 431.31-21.4Q434.96-24.05 438.26-24.05L438.26-24.05Q442.71-24.05 445.16-20.8 447.61-17.55 447.61-11.85 447.61-6.15 444.91-2.85 442.21 0.45 437.41 0.45L437.41 0.45Q434.61 0.45 431.46-0.9L431.46-0.9 431.46 9.6ZM444.76-11.78Q444.76-16.2 443.06-18.82 441.36-21.45 438.18-21.45 435.01-21.45 431.46-18.6L431.46-18.6 431.46-3.6Q432.51-3.1 434.33-2.63 436.16-2.15 437.31-2.15L437.31-2.15Q440.86-2.15 442.81-4.75 444.76-7.35 444.76-11.78ZM453.31-11.85Q453.31-17.6 455.68-20.83 458.06-24.05 462.61-24.05 467.16-24.05 469.38-21.05 471.61-18.05 471.61-13.05L471.61-13.05 471.46-10.55 456.16-10.55Q456.41-6.8 458.16-4.48 459.91-2.15 462.98-2.15 466.06-2.15 470.21-3.6L470.21-3.6 470.96-1.1Q466.91 0.45 463.36 0.45L463.36 0.45Q458.46 0.45 455.88-2.83 453.31-6.1 453.31-11.85ZM462.81-21.5L462.81-21.5Q456.51-21.5 456.16-13.05L456.16-13.05 468.76-13.05Q468.76-21.5 462.81-21.5ZM484.2-21.25L479.5-21.25 479.5-23.75 486.85-23.75 486.95-20.85Q488.55-21.85 491.45-22.85 494.35-23.85 496.55-24.05L496.55-24.05 496.55-21.1Q494.5-20.95 491.48-20.1 488.45-19.25 486.95-18.35L486.95-18.35 486.95-2.5 494.95-2.5 494.95 0 479.5 0 479.5-2.5 484.2-2.5 484.2-21.25Z" opacity="1" transform="matrix(1,0,0,1,0,0)" fill="#ffffff" class="slogan-text-1" data-fill-palette-color="quaternary" id="text-1"></path></svg></g></svg></g></svg></g></svg></g><g></g></svg></g></svg></g></svg></g></svg></g><defs></defs></svg><rect width="342.85155851775386" height="342.85155851775386" fill="none" stroke="none" visibility="hidden"></rect></g></svg></g></svg>